<mxfile host="app.diagrams.net" modified="2024-05-23T07:18:56.128Z" agent="Mozilla/5.0 (Windows NT 10.0; Win64; x64) AppleWebKit/537.36 (KHTML, like Gecko) Chrome/125.0.0.0 Safari/537.36" etag="861Zp7U1hjhld6p2Ggme" version="24.4.6" type="device">
  <diagram name="Trang-1" id="X4t8jQ1TlvTlLbm6IyXt">
    <mxGraphModel dx="700" dy="348" grid="1" gridSize="10" guides="1" tooltips="1" connect="1" arrows="1" fold="1" page="1" pageScale="1" pageWidth="827" pageHeight="1169" math="0" shadow="0">
      <root>
        <mxCell id="0" />
        <mxCell id="1" parent="0" />
        <mxCell id="zT-iuAe0Cjz1WHEJUwH6-1" value="&lt;span style=&quot;color: rgb(34, 34, 34); font-family: &amp;quot;Roboto Flex&amp;quot;; text-align: left; background-color: rgb(255, 255, 255);&quot;&gt;&lt;font style=&quot;font-size: 18px;&quot;&gt;Circle (hình tròn)&lt;/font&gt;&lt;/span&gt;" style="rounded=0;whiteSpace=wrap;html=1;fontStyle=1" parent="1" vertex="1">
          <mxGeometry x="210" y="80" width="240" height="40" as="geometry" />
        </mxCell>
        <mxCell id="zT-iuAe0Cjz1WHEJUwH6-3" value="&lt;font style=&quot;font-size: 18px;&quot;&gt;&lt;b&gt;&lt;span style=&quot;color: rgb(34, 34, 34); font-family: &amp;quot;Roboto Flex&amp;quot;; text-align: left; background-color: rgb(255, 255, 255);&quot;&gt;Cylinder&amp;nbsp;&lt;/span&gt;&lt;span style=&quot;color: rgb(34, 34, 34); font-family: &amp;quot;Roboto Flex&amp;quot;; text-align: left; background-color: rgb(255, 255, 255);&quot;&gt;(hình trụ)&lt;/span&gt;&lt;/b&gt;&lt;/font&gt;" style="rounded=0;whiteSpace=wrap;html=1;" parent="1" vertex="1">
          <mxGeometry x="210" y="500" width="240" height="40" as="geometry" />
        </mxCell>
        <mxCell id="zT-iuAe0Cjz1WHEJUwH6-4" value="&lt;div&gt;&lt;font style=&quot;font-size: 18px;&quot; face=&quot;Roboto&quot;&gt;- volume()&lt;/font&gt;&lt;/div&gt;&lt;div&gt;&lt;span style=&quot;background-color: rgb(255, 255, 255);&quot;&gt;&lt;font style=&quot;font-size: 18px;&quot; face=&quot;Roboto&quot;&gt;&lt;font style=&quot;&quot;&gt;-&amp;nbsp;&lt;/font&gt;toString()&amp;nbsp;ghi đè phương thức toString của lớp&amp;nbsp;&lt;/font&gt;&lt;/span&gt;&lt;/div&gt;" style="rounded=0;whiteSpace=wrap;html=1;align=left;" parent="1" vertex="1">
          <mxGeometry x="210" y="850" width="240" height="90" as="geometry" />
        </mxCell>
        <mxCell id="zT-iuAe0Cjz1WHEJUwH6-5" value="&lt;div&gt;&lt;span style=&quot;font-size: 18px; font-family: Roboto; background-color: initial;&quot;&gt;- getRadius()&lt;/span&gt;&lt;br&gt;&lt;/div&gt;&lt;div&gt;&lt;font style=&quot;font-size: 18px;&quot; face=&quot;Roboto&quot;&gt;- setRadius(float radius) void&lt;/font&gt;&lt;/div&gt;&lt;div&gt;&lt;font style=&quot;font-size: 18px;&quot; face=&quot;Roboto&quot;&gt;- getColor()&lt;/font&gt;&lt;/div&gt;&lt;div&gt;&lt;font style=&quot;font-size: 18px;&quot; face=&quot;Roboto&quot;&gt;- setColor(String color)&amp;nbsp;&lt;/font&gt;&lt;span style=&quot;font-family: Roboto; font-size: 18px; background-color: initial;&quot;&gt;void&lt;/span&gt;&lt;/div&gt;&lt;div&gt;&lt;div&gt;&lt;font style=&quot;font-size: 18px;&quot; face=&quot;Roboto&quot;&gt;- getPI()&lt;/font&gt;&lt;/div&gt;&lt;div&gt;&lt;font style=&quot;font-size: 18px;&quot; face=&quot;Roboto&quot;&gt;- setPI(float PI)&amp;nbsp;&lt;/font&gt;&lt;span style=&quot;font-family: Roboto; font-size: 18px; background-color: initial;&quot;&gt;void&lt;/span&gt;&lt;/div&gt;&lt;/div&gt;&lt;div&gt;&lt;span style=&quot;font-family: Roboto; font-size: 18px; background-color: initial;&quot;&gt;-&amp;nbsp;&lt;/span&gt;&lt;span style=&quot;font-size: 18px; font-family: Roboto; background-color: initial;&quot;&gt;getArea()&lt;/span&gt;&lt;/div&gt;&lt;div&gt;&lt;font style=&quot;font-size: 18px;&quot; face=&quot;Roboto&quot;&gt;- setArea(float area)&amp;nbsp;&lt;/font&gt;&lt;span style=&quot;font-family: Roboto; font-size: 18px; background-color: initial;&quot;&gt;void&lt;/span&gt;&lt;/div&gt;&lt;div&gt;&lt;font style=&quot;font-size: 18px;&quot; face=&quot;Roboto&quot;&gt;- area()&lt;/font&gt;&lt;/div&gt;" style="rounded=0;whiteSpace=wrap;html=1;align=left;" parent="1" vertex="1">
          <mxGeometry x="210" y="220" width="240" height="210" as="geometry" />
        </mxCell>
        <mxCell id="zT-iuAe0Cjz1WHEJUwH6-7" value="&lt;div&gt;&lt;font style=&quot;font-size: 18px;&quot; face=&quot;Roboto Flex&quot; color=&quot;#222222&quot;&gt;&lt;span style=&quot;background-color: rgb(255, 255, 255);&quot;&gt;- Radius: float&lt;/span&gt;&lt;/font&gt;&lt;/div&gt;&lt;span style=&quot;color: rgb(34, 34, 34); font-family: &amp;quot;Roboto Flex&amp;quot;; background-color: rgb(255, 255, 255);&quot;&gt;&lt;font style=&quot;font-size: 18px;&quot;&gt;- Color: String&lt;/font&gt;&lt;/span&gt;&lt;div&gt;&lt;span style=&quot;color: rgb(34, 34, 34); font-family: &amp;quot;Roboto Flex&amp;quot;; background-color: rgb(255, 255, 255);&quot;&gt;&lt;font style=&quot;font-size: 18px;&quot;&gt;- PI: 3.14F float&lt;/font&gt;&lt;/span&gt;&lt;/div&gt;&lt;div&gt;&lt;span style=&quot;color: rgb(34, 34, 34); font-family: &amp;quot;Roboto Flex&amp;quot;; background-color: rgb(255, 255, 255);&quot;&gt;&lt;font style=&quot;font-size: 18px;&quot;&gt;- area: float&lt;/font&gt;&lt;/span&gt;&lt;/div&gt;" style="rounded=0;whiteSpace=wrap;html=1;align=left;" parent="1" vertex="1">
          <mxGeometry x="210" y="120" width="240" height="100" as="geometry" />
        </mxCell>
        <mxCell id="zT-iuAe0Cjz1WHEJUwH6-8" value="" style="endArrow=classic;html=1;rounded=0;exitX=0.5;exitY=0;exitDx=0;exitDy=0;dashed=1;" parent="1" source="zT-iuAe0Cjz1WHEJUwH6-3" target="zT-iuAe0Cjz1WHEJUwH6-5" edge="1">
          <mxGeometry width="50" height="50" relative="1" as="geometry">
            <mxPoint x="330" y="410" as="sourcePoint" />
            <mxPoint x="440" y="340" as="targetPoint" />
          </mxGeometry>
        </mxCell>
        <mxCell id="zT-iuAe0Cjz1WHEJUwH6-10" value="&lt;font style=&quot;font-size: 14px;&quot; face=&quot;Roboto&quot;&gt;Extends&lt;/font&gt;" style="text;html=1;align=center;verticalAlign=middle;whiteSpace=wrap;rounded=0;" parent="1" vertex="1">
          <mxGeometry x="330" y="450" width="60" height="30" as="geometry" />
        </mxCell>
        <mxCell id="j49_PRcvdCjirrRGmBYI-3" value="&lt;div&gt;&lt;span style=&quot;font-size: 18px; font-family: Roboto; background-color: initial;&quot;&gt;- getRadius()&lt;/span&gt;&lt;br&gt;&lt;/div&gt;&lt;div&gt;&lt;font style=&quot;font-size: 18px;&quot; face=&quot;Roboto&quot;&gt;- setRadius(float radius) void&lt;/font&gt;&lt;/div&gt;&lt;div&gt;&lt;font style=&quot;font-size: 18px;&quot; face=&quot;Roboto&quot;&gt;- getColor()&lt;/font&gt;&lt;/div&gt;&lt;div&gt;&lt;font style=&quot;font-size: 18px;&quot; face=&quot;Roboto&quot;&gt;- setColor(String color)&amp;nbsp;&lt;/font&gt;&lt;span style=&quot;font-family: Roboto; font-size: 18px; background-color: initial;&quot;&gt;void&lt;/span&gt;&lt;/div&gt;&lt;div&gt;&lt;div&gt;&lt;font style=&quot;font-size: 18px;&quot; face=&quot;Roboto&quot;&gt;- getPI()&lt;/font&gt;&lt;/div&gt;&lt;div&gt;&lt;font style=&quot;font-size: 18px;&quot; face=&quot;Roboto&quot;&gt;- setPI(float PI)&amp;nbsp;&lt;/font&gt;&lt;span style=&quot;font-family: Roboto; font-size: 18px; background-color: initial;&quot;&gt;void&lt;/span&gt;&lt;/div&gt;&lt;/div&gt;&lt;div&gt;&lt;span style=&quot;font-family: Roboto; font-size: 18px; background-color: initial;&quot;&gt;-&amp;nbsp;&lt;/span&gt;&lt;span style=&quot;font-size: 18px; font-family: Roboto; background-color: initial;&quot;&gt;getArea()&lt;/span&gt;&lt;/div&gt;&lt;div&gt;&lt;font style=&quot;font-size: 18px;&quot; face=&quot;Roboto&quot;&gt;- setArea(float area)&amp;nbsp;&lt;/font&gt;&lt;span style=&quot;font-family: Roboto; font-size: 18px; background-color: initial;&quot;&gt;void&lt;/span&gt;&lt;/div&gt;&lt;div&gt;&lt;font style=&quot;font-size: 18px;&quot; face=&quot;Roboto&quot;&gt;- area()&lt;/font&gt;&lt;/div&gt;" style="rounded=0;whiteSpace=wrap;html=1;align=left;" vertex="1" parent="1">
          <mxGeometry x="210" y="640" width="240" height="210" as="geometry" />
        </mxCell>
        <mxCell id="j49_PRcvdCjirrRGmBYI-4" value="&lt;div&gt;&lt;font style=&quot;font-size: 18px;&quot; face=&quot;Roboto Flex&quot; color=&quot;#222222&quot;&gt;&lt;span style=&quot;background-color: rgb(255, 255, 255);&quot;&gt;- Radius: float&lt;/span&gt;&lt;/font&gt;&lt;/div&gt;&lt;span style=&quot;color: rgb(34, 34, 34); font-family: &amp;quot;Roboto Flex&amp;quot;; background-color: rgb(255, 255, 255);&quot;&gt;&lt;font style=&quot;font-size: 18px;&quot;&gt;- Color: String&lt;/font&gt;&lt;/span&gt;&lt;div&gt;&lt;span style=&quot;color: rgb(34, 34, 34); font-family: &amp;quot;Roboto Flex&amp;quot;; background-color: rgb(255, 255, 255);&quot;&gt;&lt;font style=&quot;font-size: 18px;&quot;&gt;- PI: 3.14F float&lt;/font&gt;&lt;/span&gt;&lt;/div&gt;&lt;div&gt;&lt;span style=&quot;color: rgb(34, 34, 34); font-family: &amp;quot;Roboto Flex&amp;quot;; background-color: rgb(255, 255, 255);&quot;&gt;&lt;font style=&quot;font-size: 18px;&quot;&gt;-&amp;nbsp;&lt;/font&gt;&lt;/span&gt;&lt;span style=&quot;font-family: Roboto; font-size: 18px; background-color: initial;&quot;&gt;height: float&lt;/span&gt;&lt;/div&gt;" style="rounded=0;whiteSpace=wrap;html=1;align=left;" vertex="1" parent="1">
          <mxGeometry x="210" y="540" width="240" height="100" as="geometry" />
        </mxCell>
      </root>
    </mxGraphModel>
  </diagram>
</mxfile>
